<svg width="1280" height="720" xmlns="http://www.w3.org/2000/svg" xmlns:xlink="http://www.w3.org/1999/xlink" overflow="hidden"><defs><clipPath id="clip0"><rect x="0" y="0" width="1280" height="720"/></clipPath><clipPath id="clip1"><rect x="409" y="120" width="96" height="96"/></clipPath><clipPath id="clip2"><rect x="409" y="120" width="96" height="96"/></clipPath><clipPath id="clip3"><rect x="409" y="120" width="96" height="96"/></clipPath></defs><g clip-path="url(#clip0)"><rect x="0" y="0" width="1280" height="720" fill="#FFFFFF"/><text fill="#C5E0B4" font-family="Calibri,Calibri_MSFontService,sans-serif" font-style="italic" font-weight="700" font-size="80" transform="translate(509.974 196)">vs-form</text><g clip-path="url(#clip1)"><g clip-path="url(#clip2)"><g clip-path="url(#clip3)"><path d="M447 148.998 467 148.998 467 158.998 447 158.998Z" fill="#A9D18E"/><path d="M423 148.998 443 148.998 443 158.998 423 158.998Z" fill="#A9D18E"/><path d="M423 162.998 431 162.998 431 172.998 423 172.998Z" fill="#A9D18E"/><path d="M483 163 491 163 491 173 483 173Z" fill="#A9D18E"/><path d="M435 163 455 163 455 173 435 173Z" fill="#A9D18E"/><path d="M459 163 479 163 479 173 459 173Z" fill="#A9D18E"/><path d="M447 177 467 177 467 187 447 187Z" fill="#A9D18E"/><path d="M423 177 443 177 443 187 423 187Z" fill="#A9D18E"/><path d="M423 191 431 191 431 201 423 201Z" fill="#A9D18E"/><path d="M483 191 491 191 491 201 483 201Z" fill="#A9D18E"/><path d="M471 177 491 177 491 187 471 187Z" fill="#A9D18E"/><path d="M435 191 455 191 455 201 435 201Z" fill="#A9D18E"/><path d="M459 191 479 191 479 201 459 201Z" fill="#A9D18E"/><path d="M469 137.874 487.384 129.997 491.294 139.123 472.911 147Z" fill="#A9D18E"/></g></g></g></g></svg>